/* XPM */
static char *b91bbe49d602446ca1094aba84f200bfIMkgKsrGtY7U9cTU[] = {
/* columns rows colors chars-per-pixel */
"128 128 85 1 ",
"  c gray1",
". c #040404",
"X c gray2",
"o c #060606",
"O c #070707",
"+ c gray3",
"@ c #090909",
"# c gray4",
"$ c #0B0B0B",
"% c #0C0C0C",
"& c gray5",
"* c #0E0E0E",
"= c gray6",
"- c #101010",
"; c #111111",
": c gray7",
"> c #131313",
", c gray8",
"< c #151515",
"1 c #161616",
"2 c gray9",
"3 c #181818",
"4 c #191919",
"5 c gray10",
"6 c #1B1B1B",
"7 c gray11",
"8 c #1D1D1D",
"9 c #1E1E1E",
"0 c gray12",
"q c #202020",
"w c gray13",
"e c #222222",
"r c #232323",
"t c gray14",
"y c #252525",
"u c gray15",
"i c #272727",
"p c #282828",
"a c gray16",
"s c #2A2A2A",
"d c gray17",
"f c #2C2C2C",
"g c #2D2D2D",
"h c gray18",
"j c #2F2F2F",
"k c gray19",
"l c #313131",
"z c #323232",
"x c gray20",
"c c #343434",
"v c #353535",
"b c gray21",
"n c #373737",
"m c gray22",
"M c #393939",
"N c #3A3A3A",
"B c gray23",
"V c #3C3C3C",
"C c gray24",
"Z c #3E3E3E",
"A c #3F3F3F",
"S c gray25",
"D c #414141",
"F c gray26",
"G c #434343",
"H c #444444",
"J c gray27",
"K c #464646",
"L c gray28",
"P c #484848",
"I c #494949",
"U c gray29",
"Y c #4B4B4B",
"T c #4C4C4C",
"R c gray30",
"E c #4E4E4E",
"W c gray31",
"Q c #505050",
"! c #515151",
"~ c gray32",
"^ c #535353",
"/ c gray33",
"( c #555555",
") c gray34",
"_ c gray35",
/* pixels */
"yyyddffkkkvvkvmmmCCmCFFEEHEHEYYHHYHHHHHHHHYHHHFFYHFCCCmFmCCCCCCCCCmmvCFHFFYEEHHHFFFCmCmvvmvvvkvfkkkfHFmvkvvkvmvvvvvmmmmCmvvvvvYm",
"55555558888q88qqyqqqyqqv8qyqqyqyyyyyyyyyyyyydyqyqfqyyyyydydyyddddydddydydfCmqddfydydyddfffydyddddddqmfydddfdffddddydddfddydyyqff",
"25255588888qqqqqqqqyqqymqyqqyyyyqyyyyyyydyyyyyyyyfqdydyydyyydydyyyydydddddCCqyyydydyddyyydyyydydydyqHfyyyfdddydfdydyyfdfdydyyqFd",
"252555888q8888qqqqqqqqqFqyyyyyyydyyyydydyyyyyyyqfvqyqyyyyyyddddyyqdyydyyydmFqydyydqyqdyyydydydyyyddqEfyydfdyydyyydyydyyyyyyyyqEf",
"555558888qqqq8qyqqqyyqqHqydyyyyddyyyydyyyyyyddyykv8yyqqyyqqyyyyqqqqy8qqyqdvFyydyddqydyqdyfyyydyyyddyYkyyddydyydyyyqyydddyyyyyqQk",
"555555888q8qqqqqyqqyqqqFqqyqyyqyyyyyyyyyydyyyyyykvqq8qqqqqyqqyyq8qqyqyyqyymCqyydydyyddyyddddydddyddyFvyddffdddyddddydyydyydyyyEk",
"255555588888q8qqqyqqyqyFyyyyyyyydyyyyyydqyddyyyykmqyyyyy8yyyyqyqy8q8f8qfq5kYqqyddddyqydyyyfkffdfkvvvFCdydffkvvvkfffyydyfkddyyd(F",
"ddfkfkkkvmmCmvvmmvkkkkvHffddfvkfffffvvmCmCmCCFHCFEHYHHYHYYEHHFFFFFFHYEEQ(Q__YEEQQQ((_QQ(QQQEYYEYYEYHYEEYHYEYYEEEQQQEQQEEYYHYFHEE",
"55qqqyymqqqyyyddffkkkfkvvkvmmmCkkHCvvmvvkfkkkkffffkffdydddvFHvvkvkkkfffffdddfkkffdyydCmydydqdyyyyyyyyyydyddddyddFyddddyyyyyyyyff",
"2555555f888qq8q8qydyqqqqyqdkkkfd8CdyyyyyyydyyyyyyddfyyddydyFvqydyyyyddyyyyyyyydyyydyymvyddddyydyyyydyddydydyydydm8qyqyqqyyqyqyyq",
"2225552q888888qqqddqqyqyqyykvvffyFdyydyyyyydyyydydyddyyyydyCvdydyyyqyyyyyydyydyyyyyyymvdddddddyddddddyyddfydfdqkmqyqqyyyyyqdyyyq",
"2252555f8q8qqqqqqdfdyqyqyqykvkkfqFdqyyyyyyyyyyyyyyyyyyyddyyCvyyyqyyyyqqyyyqyqyyqyqyyymkddyyddyddyddyyddddydydfykFqqqq88qqqqqqyq8",
">252552f888588qqqddyyqyyqyyvvvvfyFyyyydyyyyyyyyyyyddyyydddyvvqyqyyqyyqqyyyyqyqyyyqyyymvydydddyyydyyydyydyydydyymE88qq88888q8q88q",
"2255585k5888q888qdfyqqyqqqyvmvvdqFdyyyyyyyyydyyyyyyddydydqymvqydyyyyqyyydyqqyyyyyqqyyCmdddddydddydddydddddydddyYY58qq85888588q88",
"2588555k8888q888qdfdq8qyyyykvkfyqHfdyyyyyydqyyydfdyqqyqyqyymmqqyyydyyyyydddddfkfdddfkFFvmvvCmCmvmmCCCCmmvmvmvmmHYkffkfffdfffkvff",
"ddfffkkvkkkvvvmCCCFFFHYHCHYYYYHYYYYHHHHYHCYEYYYYYHYEYHYEEEEYEYYHHEYHYYHFFFHYEYHHFFFFHHHCFCCmmmmvkCmmmFFvmmvvvmvvmCmvvvvkkkkfkkkF",
"22222555585585858858885ym8yqq8qqyq8qqyyqqydvmvvdqfvyqyyqyqqyyqyyy8qyyqyqyyqCCddyddydddyyydddyddydydyydmyyyyyyyyyy8qyyqyqqqqqyqqq",
">2225225555855888888q88ym8qyqqqyyyy8yqyyyydvmmvyyfvqyyyyyyyyyydyqyydyydyyyqmvqydyydyyyyyydyydyydyydyqdvqdyyyyyyqqyqyyyyyqqqyyqyq",
">22>2525555885888888888yFqyyqqqqyqqqyqqyyyyCCCvdqdmqqyyqqyqyyyyyyyyyyyqyyyqmvyyydqyyyyyydydyyyyyyyddyfvyyyyyqyyyqyyqqqqyqqyqqqqq",
"225255555888888q8q88qqqdCqqyqyqqqyy8qyyyyyfmCmvfydCqqyyyyqyyyqyqqyqqyqyyyyykvyyyyyyyyyyyyyyyydyyyyyy8dvqyyqdyyyqyqqqqyqqyyqqyqyq",
"2>25255888888888q8qq58qfFqqyyqqyqyyqqyyqqydCCCmfqdC8qqqqqqyyyyqqq8qyyqyyyqqvvydyyyyydyyyydyyydyyddyyqdmyyyydyyydyyyqyyqqyyq8qqyq",
">2555555558588q88q88558fCyyyyyyyyyqyyyyyyydFmCCfyfHqyqqqqqqyqyyqqyyyqqyyyqqmmyddddydddddyddyyyydyyyyqdCyydffdyyyyyqydddyqyyqyyyd",
"qydydddddddddydddyddqqyfmfddydffffvkkvfvffkvmkvvkvHfkkfkfydykvmmmvmmmmvCCmmCHmmmCmmCmvkkvkvkvkkvvvmvmCHvkkvvvvmCCFHHFFHFHYYYYHYY",
"8588888fkffffkkkkvvkmvmmCmmmFCCFFHkvkkvfkkkkkkkkkvkvvvvvvkkEmdfffffvmmkvkdddydfmvvddffHFmCmmmmmvkvkkkkkffddfddydk588522222525552",
">>>%2>>qy5yq88qqqqqqyqqqqqdffkyq8Fqyyyyqqyyqqdqyyyyyqyyqqyqvk858888ykkkkq555588yky8555vqddyyyyyyydyqyyyyyyyyyyydk8522222222>22>>",
"%%$>%>2qq8q8q88qqq8qqqqqqqfkffdy8Cyqyqqyyqyyqqyqyqyyyyyyyyymk8qq885dmvmvd855558dfd8858vqyyyyyyyyqydyyydydyyyyyqyk5552>2222>>>2>>",
"$%%%%>>yy8q888888q88qqq8qyffkfyqqFqqyqyqqqqqqyqyyyyqqyyyyyymm885888ymmvvq885885dfd5888mqdyyqyyyyyyyyyyqydqyqyyyyk82252>>>222222>",
"$%$%%%2yq8qq8888q888qqq8qqfkkkyq8Fqqqyy88yqqyqyq8yqyyyqyyyqCv8q8888qvmmvyq88888yky888qmqyqdyydqyyyyyyyyyyyyyyyqyv8222>2>>2>22>2>",
"%%$%>>>yq88888q8q888qqqyqyfkfkdqqFqqqqqyqyqqyqqqyqyyyyyqyyqCCqqqqqqyvCmmy888qqqdkf8qqyvyyqydqydyyyyyydyyyyyyyyyyk8552222>22>>2>2",
">%>>>2>d858588qq5888qqydqykkkkfy8Cy8888q888q888q88q888q88qqmk8888858dfffq888888ydy8q5dCyyyyyqyqqqyqqqqdqyyq8qq88k888285555822522",
"dyfkvfkmvfkkvkvvkvvvvvmvkvvkfffffFmvvmmmmCCmCCCCCFFHHHFHFFmFFkkkvvvCCFFFFmCFFFFFCFFFHFFCFFCFFCHYFvFCCCCHFHHHHHHFYHHHFHFFFFFCFCmF",
"yqqyddffdffdffdffkkkkkkkvvkvkkkfkkkkkfkkkfkfkfdffkCdfffffkkffffddddfffdfddffFfqqqqyqyqqyqyqqq88qyqqqdyvyyyyyqyyyqqyyyyyyyyqdyqdy",
"222222558qq555555qyyyy88f55858q88q8q88q88qq8q8qqq8k8qqyqqqyyqyyyqyyyyyyyqyqqm5252252222255255252222558vqyyyqqqyqqyqyqyqqqqqqqqqq",
"22>>2>588q8552558qyqyy88f888q8888qqqqqyq8qq8qqqqq8m8qyqyqyyyyqyqyyqqyyyyyqqqm225>22222>222558555522258kqyyyyyyqyyqyqyyyyqyyqqqqq",
"2>2>22588qq5222225yydy88f58q88q8qqqqqqq8qqqqyqqqqyk5qqyqyqyydqyqqyyqyyyyqyyym8552222222255525522222258kyqyyqyqyyyyyyyqyyyyqyyqq8",
">2252558qqy5585588yyyy88f588888888888q88888qqqqqq8m8yqqqqqydqqqqqqyqqyqyyyqqm55522222222225255252>225qvqyyyqqqqqqqq8qqqqqqqqqqq8",
"5252225qyqq555555qdyydq8f58885888qq88888q888q88qqqv58yqqqyyyqyqq8qqqyqyyyqyqm555555255852555555552>525kq8qyyyqyqqqqqqqqqqqqqqqq8",
"22222288qyy855828qyyydq8k8888888qq8q8qq588888q8888v2858q8qqqq8888qqqqqqq88qqv855555555qq58588888885558fq88q88888qq85888888888585",
"qyydfddkdyyfffdffkfffdffvffkvvmCmCmCCFCCCFFCCFFmCCCmCvCmmCmmCFFFFHHFFCCFFFHHHFmFFCCFFCmmmvvmmmCmmCCFFFHmCCCCFCCCvmmCmmmmCmmmmCmC",
">2>>>>5qyqyyydqyyyqyqqqqqqqqqqq8qfy88888588888qqqqyqyyyyddfCkyyyyyqqyqqyqqyyyyyyqqqyqdC22>>>>%2>>2>>>>>2>>585555C252222>25555552",
"%%%>>%>58252582555558555855585555dd5q88q8qqqq8qq8qqqqqqqqqqvd5885558888qqqqq8qq8qq88qdm5>>%%>>22222>>>>2>>252222k5>>>>>>>>22>22>",
">%>%%>%55222252555555858585858885yy58q8888qqqqqq8q8q8q8qqq8kd552225555558588q8555555qyC2>%>>2>22252>2>>>2>22>222k52>>>%>>>>%>>>>",
"%%%>%>>55255255522558558855555855yd5q8q8qq88q88qq88q8qqqq88vd>>>>>>2>>>>2>>>22222>225yv2>>%>>>>222222>>>2>222>22m5>>>>%2>%>>%>%>",
"%%>%>%>85225255225525555585555585yd8q88q888qq8qqq88qq8888q8ky>>>%%%%%>>%>%>>>>%>>>>>5qv5>>>>%>2>222>%>>>>222>255m5>>>>>>>>2%>2%2",
">%%>%>>58225222525255888855555858dd5qqqq8qqqqqqq8qqqq88qqyqvd>>%%>>>>%>>2>>>2>>>2>222qk52>>2>22525552>22>2555258C52>22>2>22>>2>>",
">255225q8225552225555888852855885ydqyqyyydyyyyyddydyyddqqqqvf555522525255528552525>52qmdqqq8qqyyqyyqy8q825qqq8qyHvyyyqqq8qqq8qq8",
"ffdfkkfkkfffkkkvkkkkkkkmmkfkfkfdfkmvvvmvmmmmvvvkvmCFFCCCCmCHHCCCFCFCFFCFFHHHFmkvkvmvkvCmvmmvvmmvmmvvvmmFCmvvmmvvmvfkkvkvvvvkkfkk",
"%%>>%>>>2>>>2%>>>>22>225vy855555855558888858888855dk8qkffff8qq888qq8qqqqqyy5fy888885858kykqq5888858885qCq888qqq8888q888q88888885",
">%%>>>%>22>2>22>>>22>>>>kq855555558555858858588888dd5qkkkkfqqq8qq8q8qqqq8yyqkf855855855qd58585555558858k88q88q88q88q8888q8888858",
"%>%%%>%>%>>>%>>2>>>22>>>fq258555855858888585888q85yd5yffkkfqq88q888qqqq88qy8kk5885585858555855585588858k888q88q888888888q8888885",
"$$$$%>>%>>>>%>%%%>%>>>>>fq555255555558588888558888dy8qkvvkdq8q88q8888qqqqqdqkf8585588888585555858888888v888q88858888888888q85588",
"$$$$$%%%%%%%%%%>%%%>%%>%ffd85555555555858588888885yd8yfkvkyqq8qq88q88yqqqyf8kf5585885558858585555858885m5qq8q8q88q88q888q8888888",
"$$$%$$%%%>%%>%%>>%%>>>>>ky85558855885585588888888qfd8qkkkkd8qqqqq8qqqq88qqd8vv2558588888888558888855888C5qy8qqq8888qq88qqqq88888",
">22522q85525558q888888q8ky88qqqyyyyyfddddydydydddffdqqyydddydfdfkfffdddddyydmvdddddyffffkfffkfkfkkfffffmfyqdydfkdmmvvvmvvvvkvvvv",
"58q8qqyffqq888qq8q8qqyqydyyddddyyvddydydydddydffffffddfffvvmffyddyfyydydffdfkkkfddfvkvkyqqqfqqqq8888888888qyqydff>>>%%>%>%>>>>>2",
">>>>>>2qq%%%%%%>>%%%>%%%%>%%%$%>>fq55888555555qqqq855555585d822%>>2>2>>>2>%>>>%>>%>>%qq>>>%>>>>>>>>>>%>>>>>2>2>8k2>>2>>>>22%>>>%",
">>>>>2>q8$%%%%%%%>%%%>$%%%>%>%>%>y8558q58585888qqqq888888q8d8222>>>%>>>>>>>>%%>%%>%%>yy2>%>%%>>>>>>%>>%>>>>2>2>8f52%%>>>>>>>2>%>",
">>>>>2>q5$%%%%%%%%%%%%%%%>%%%>%>>d8258885855588qqqq85888q85d8>>%%>%>>>%>>%>>%>%>>%>>>yy>%>%>>%>>>>>>>%%>>>%>2>>8d5>>>>>>2>>>>>>>",
">%%>>>>q5%%%%%$$%%%%%%%%$>%%%%%%>d8558585555558qqq885555885f8>>>>%>>%%>%>%>%%>>>%>>%%qd>>>>%%>>>>>>>>>>%>%>>>>>5f5222>>2>>2>>2>>",
">>>>>>2q2%%%%%%>>%%>>%%%%%%>%%>%%dq885555855888qqq888888885f82%%>%%%>>>%>>%>>%>%%>%>>yy2>%%>%>>>>>>>>>%>>>>>22>8v822222222222>>>",
">>>>>>2q5>%%%%>%>%%>%>%>>$>>%>>>2d85558855588888qqqq88q88qqfq2>>>>%>>>>>>2>>>>>>>2>%2dfq22>>22>>2222>>>>2522555qk585855558885225",
"qqyyyydfkfddfkfdddydffkfkfkkvvvkvvmvvmkvvkkfkvvfkkvkvmvkkkfvvvvvvvkkkvkvvvvvvkyydfddfvmvvmmmvvvvvvvkvvmvmmvvkkkkvvkkffffkkkkfdff",
">22>22525522522222255555qq222>2>8dqyd>>>2>>>yyq22>qq855585558258555555255525kmfdkfddd85552555552555555yq8q588558888885558qddq855",
">%>>>>>222>22225222225528q>2>2>28dfdy2222222qyy22>y8885558555855585855585588fy58ffydy58558585855555582d8qq885888885858585yddq555",
">%%>>>>>>2>222>222222222882222228dddy5222225qdq522q8885585855555555558585855dy5ykkkky85855885585585585dqqq8888588q8885555qdd8855",
">2>>>>>2>2>2222222222222852222258yddy2252522qdq522yq558555555555855555555555dy8ykkkkf858585558855558q8dqqq8888888q8855858dddq555",
"%>>>>>>>>22>>22222225252qq5222258dddd5222522qdq55>y8555555555555555558558585ff58fkkfd585858585858588q8yq8q8888855d8858888ydyy885",
"%>>>>>>2>>2>2>2222222252qq2222228yddy5555525ydq852d8888855588588858558585855ff58fkkfy88888888588858585fq88888888qd8888588dyyq855",
"2>>>2222>2>>>>>>>>>>>>>285>22>2258qyq8888858yq8858dy888q8qyqyqyyqydqyyyyydqykv8qdffkfyqqyddydydddyyyyyky8qqqqyqqyyydyqyyqydyyyyy",
"5585qqqdyyyyyyyyyydyyyyyddydddfkkmkfvffkfkffffffkkkffkkkvkkvvCvkvkkfvkkkfkkkkvkvkmvkkCvkkkkkkffkfkffffffddddffffkfqyfyyqyqqqqyqy",
"$$$$O$>y2>2>>2>>>2222>2222>222222f8885255255552255525558552f855585855555q855555558585kf2885855885858855858588858dq>>2%>%>%%>>%>%",
"OO$O$$>y2>>2>22222>2222225222222>k8q52255555552555558585555k525555555555q882855855558fd2558585555558558585558585fy%>%>%>%>%>%>%>",
"$O$$$$%d2>>2>>>222222222222252252fqq82525555555552552555555f5225555555555555555552555dk2855555555585555858555555fy>%%>%%>%%%%>%>",
"%$OOO$%y>2>>2>>>>>>>22>>>22>222>5fq852222225222522225558855d8525552555555525555555255df2558558585555555555558555dq%%%%%%%%%%%>%%",
"$$O$O$>y>%>>%>>>>>>>2>>>>2>22>22>fqq82222252222522258585585d8225225555555555558555552dk2555855555582555585555858dy%>>%$%>%%%%>%%",
"$$$$$$>d>2%22>>2>>>>>>2>22222>222kqq8>222255555555555855582f8555555555555558585555585dk5588585585885555525585555fq%>>>>>>%>>>%>>",
"2252222q5225252>25252525555558588fq88q8qqqqqqqqqdyffyddyyddvq58q8qqqqqqqqqqyydqyyyyyyvvqqq8qqqqqyyydyyydddddydyyfvddfdfkffkffkkk",
"q8888888qq88q888qqq8qqq8qdfydyyqdfyqyyyyqqyyyqyyqyykdqyyyyydyyqqqyyyyqyyqdyyykkfdddddffyyyyqyqydydydddddvyydyydyffddyqqqqqqydyqq",
"8$%>>>>%>%>%%>>>>>>>>>>>%8q>>22222222>2252225525522y8255525555252555522585528yd2555222225252522222222525f5525225qq8522225228q852",
"5$%>%>%>%>%>>2>>>>%>>>>>28q>2>>222>2255552222225225yq2555555555555585255585858d>525525525555225225552222f55525558qq8>2522558q855",
"5%>%>>%>>>>%>>>>>>>>>>2>>8q2>2>222>2>>>>2>>2>>22222qq552255222225555552222555yy225552225522552225222222>d2552255qqy5222222258822",
"5%>>%>>%>%>>>>>>>>>>>>>>>58>>2>>>%>>>>>>>22>>>>>>2>qq222555555222222222225228qd2522555522552252225552225d25552228qq5>>22>258q852",
"5$%%%%%%%%>>>%>>>>>>>>%>>58>2222>222>>>>>>22>2222>2qq252525555552252522225585yf5555525255585552252255555f55552258qq5>2222228q852",
"8%>%>%>>%>>%%>>>>>%>%>>>>882>>>222>>>222222>>2>22228q522225522255555555252255qf5552555555525225552252225v2222252888q522522258822",
"q22222588qq8qqqqqqqyyqqyqddydddyyfddddddddddddddyyddddddddddddfkkfkkfkkvkkkkfkkqq5yffkffkvkkvkkkkffkfkkfkkkkkvkvkffkffffffffffdd",
"2>22225y52522>22>252555288522258qfy22>>>>222222225555585q8qyy885525255552255588588528yk5255552522525555885552255f5>>>>%>>>%%%>>%",
"%>%%%%>82>%>>>%%%>>>>>>>>>>>>>>>2qy222>>2222222>2222>2225228y>225225555255558522552558f222255222522252522252222>f8>%%%>%%>%>>%>>",
">%%>%>>82%>>%%>>>%>%>>>>>>>>>>>>>qy5222222222222222222222225q222522555555588555522522qf225252252522222522252222>f8>>2>%>%>>%>>>%",
"%>$>>%>q>>>>%%>%%>>%>>%>>>>>2>>>>yy5222>>2>222222>2225225528q>222222222222>>22222>2228f25225222222222522222>222>f5>%%>>%>%>%>>%>",
"$$$%$%%82%%>>>%>>%%>>%>%>>>>>>>>2yq22>222>22>2222>22222225>8q>>2222>2>>>22>>>>>>22>>28k522222222222522252222222>d5>>>%>%%>>%%>%>",
"$$%>%>%82>%>%>>>%>>%>>%>%>%>>>>>>qy552>22>2>222>222525222225y2>22522222222>222225222>8k5225222222222222>22>22222y8%2>>>>>>2>>>>>",
"%>%>>%>82>>%>%>%>>%>>>>>>2>>>>>>2dq222252222222222>22>252>%58>>>%%>>>%>>>%2>>>>>>>>%>5d2>>>>2255522552222255>>>2yq555255222222>2",
"qqqq8888q88qq8qqqyqyyyqdyfdddddddddddfkfkfffffkkfkvffdfdddfddddydfddddddddddfkfffkdyddffdyydfkkkffkdffkfkfkkkffkkkkkkkvkvvkkfffk",
"5$O$$O$$OO$O$$$$$O$$%%%%%qq>>%>>>>>>>>2>2>2>2>>2>252d%>>2>>>>>>>>2>>22>2222228d>252>22222222222252222222y>22222>222>>222>>2>2225",
"2OOOO$OOO$O$OO$$$$O$$$%>%2q>2>%>>%%2>>>>>>>>>>>>2>>>d>>>>>22>22252222222222522d>222222>2222222222222222>d>>252>>2>2>>2>22>>2>>>>",
">$OO$O$$OOO$$$$OO$$O$$%%%2q>%2>>>>>>>%>>>>>>>%>>%>>>d%22222>22>222252225522222y222222222>22>>222222>22>>d%2>2222>>>2>>2>>>>>>>>>",
">OOOOOOOOOOOO$$OOO$OO$$$%2y>>>%2>%>>>%>>>>>>>>>>>>>>d%222>>>>2>>2>>>22>2>22222y>>22>>2>22>22>>2>2>>>22>>d%2>2>>>>2>>>2>2>>>>>>>>",
">$OOOO$O$OO$$O$$$OO$$O$$%5y%>>>%>>>>>>>2>>>>%>>>2>>%f22222>22>>>22>>>2>>22>>2>d>2>222>2>22>222>22>2>2>2>d>>222>22>>>>2>22>>>>>22",
">$$O$O$OOOO$$O$$O$$$O$$$>5q%>>>>>>2>>2>>>>>>>>>2>2>>d>>22>>22>>222222>2>2>2>22d22222>>>>>22>>22222>2>>>>d>2222>2222>2>222>22>>>2",
"2%%>%>>>>%>%%>>%>>>>>>>>25d8558552282225552552252222y2>222222>2222525255522255d2222225222552555522225552q22555552555558522252222",
">%>%>%>28552222255558855888888yydfdqqqqqqqqyqq8qq8yqyqqqq88yyyydyyyyyydyyyyyyydqyyydddddqqyqqqq8q8qqqqqqqqyqyyydfdqyyqq8qqq8q8qq",
" O   O $2OOO O   O OOOO OO$OO$$$%85$%$$$$$$%%$$$$$$82$O$OO%q5>>>22>2>>>222222222222>258%$O$$OO$$$O$$$O$%$$$$%>%$q8>>222>2>>>>>>>",
"O  OO O$2O OO  OO O OOOOOO OOOOO$55%%%%%$$$%%>$$%%%%O$$O$O$822>22>22>22>>>22>>222>>2>5y%OOOOOOO$$O$O$O$$OO$$$$O$88222>>>>>>>>>>>",
"O      $2$   O O OOOO OOO OOOOOO%58%%%%%%%%>>%%>%%%%$$$$$%>85>>>>>>2>>>2>>>>2>>>>>2>>8y%OOOO$OOOOOOO$OO$$OO$O$$$qq22>22>>>2>>>>>",
"O O   OO5OOO OOOOOOOOO OOO OOOOO%88%%>%>>%%%%>%>>%>%%%%%%%2q5>>>>>>>>2>>>2>>>>>>>2>2>5y%OOOO$OOOOOOO$$$$OOOO$$O$8q>>22>>2>>>>>>>",
" OO OO O2O  OO OOO  O OOOOOOOOOO%5q>%%>>>>>>>>>>2>>>>%2%>>>q2%%>%%>>%2>>>>%>>>222>%>%8y$$$OOOOO$OOO$OOOOOOOOOO$$q8>2>>2>>>>>>>2>",
" O O O$$5%$O$OOO OOOOO$OO$OOO$OO$58>%>>>>>>>>>2>>>%2>>>>>>285%$%%$%%%>%>%>>%%%>%>%>>%5y>%%$$O$$O$$$$$O$$$OOOO$$>88225522222222>2",
">2555558q885888888qq888q888855888yy88q8888qyq8q88yyq8q8q88qy82255558585858588555255555d88qq888885585888588555525yq55555855555555",
"%8$$%$$%$%$$$%$$%%>%%>%>222q522>2>>>>>%2>2>2>>>22>255dq8q858558888558558555885qyq885858888552555522555558qq858555522222>22252222",
"$5OO$OOOO$$OO$$$%$$%$$$$O$%y%%%$%%$$$%$%%%$%>%$%%%%%%82>>2>>>22>>>>22>>2>22>>>2q>>>>>2>2>>>>>>>>>>>2>>>>>55>>>>>2>>>>>>>>>%%%>%>",
"O2$$OO$O$$O$$$$O$O$$$$$$$$%y%%%%$%>%$%%%%%%%%%%%%>%%%q2>>>>>>>>>>>22>222>>>22>>q>>2>>2>>2>>>>>>%>%2%>>>>>88>>>>>>>>>%>>%>>>>>>>>",
"$2OOOOOO$OO$$OO$$$O$O$$O$O%y%%%%%%%%%%%%%>%%%%>%%%%>>q2>>>>>>>>>2>>>>>>>>>>>>>2q>>%>>%>>>>>>>%>>>>>>>%>>>58%>>>>>>>%>>>2%>>>%2>%",
"$5OOO$O$$OO$$O$$$O$O$$$$O$%y%%>$%>%%%%%%%%>$%%%%%%%>%q>>>>>>>2>2>%>>>>>2>>>>>2>q2%>>>>>>>>>>>>>>>2>>>>>>>88%>>>>>>%>>%>>%>>%>%>>",
"O2OOOOO%$$$$$$$%O$$$$%$O$$$y%%%%%%%>%%%%%>%%%>%%%>%%>q>>>>>>>>>%>>>>>>>%>>>>>>2y2%2>>>>>%2>>>2>>>%>2>>>>>88>2>%>>>>>>>>>>>>%>>%>",
"$2$$$$%%%%>%%%>%%>%%>%%%$%>q>22>>2>>>>%>%>>%>%>%>>%2%q>>>>>222552>22>22>>2>>>>>y5>>>>>>>>2>>>%>>>%>>>>>>>5q2>>2>>2>>>>>>%>>>%>>>",
"5855888q8888q8888q888qq88q8q8q88qdqyyq8q88q8qq8888yqqddydydddffydddddddyydddyddddyydydyyyyyqyqqqqqqqq88588yydqyyyqyqqq888q88q888",
"O$$$$$%5%%>%%%%%%>%%>%>%%%>%>>>>>q5%%>>>>>>>>>>>>>>>>%>>%%>8$$$$$O$$O$$$O$OO$$$O$$$%28%$$$$O$$$$%%%%$O$$$$OOOO%82>>>%>%>>%%>>>%>",
"$O$$$$%5%%%%>%>%%%%>%>%>>>%>%%%%%q2%>%>%>%%>>>>%>%>>>>>%>2>5$O$O$$OOO$$$$O$$$O$OO$$$$q%$$$$O$$$$%%%%$$O$$$OOOO%82%>>%>>>>>>%%>>%",
"$OO$$$$2%%%%%%%%>%%%%%%>>%%>>%>>%y>>>%>>>%>>>2>>>>>%>>>>>%%y$$O$O$O$$O$$$OO$$O$$$O$$$5$$$$O$O$O$$$$$$O$OO$$$O$%85%>%>>>>%>%>%>%%",
"O$O$$$$5$$>%%%%>%%>%>%>%>%%%>>%%%q>%>>>%>>>%%%%>%>>>>>%>>2>y$$OOOO$$O$$O$O$OO$OOO$O$$5%$$OO$$$$$$$$OO$OO$O$O$$$85%>>>%%%%%>%>%>>",
"O$O$$$$2%%%>$%%%%%%%%%%%%%%>%>%>%q2%%>%>>%>%>%%>>%%>>>>>>>>q%$$OO$$$$$O$$OO$$OO$$O$O$8%$$$O$$O$$O$O$$OO$$O$$$O%q2>>>>%>%>%%>%>%>",
"$$$$$%$5$$%%%%%$%>%%>>%%>%>%>%>%>q2>%>>%%>>>%>>%%>>>%2>%>>%8%%O$$O$$OO$$O$OOO$$$$$O$$y%%OO$$$$$$$O$$$OOO$$OOO$%55%>>2>>>>>>%>>>>",
"%%%%%%>22>>>2>222>2>2>22225558555q5555888858885555555552222q22>>>%>>>%%>%>%>>>%>>%%>>8>%%%>%%%%>%>%%>%>>>>>>>>2882222555>>2>>>%>",
"2>2222>222522522555885888y8>>%$$$>%%>>>>>>>>2222222q22255558558555588888qqqy8fqqq88555555858555555888q55555522255225255522552555",
"%%%$%$$%%%>>>%%%%%>%>>%%285O$OOOOOOOOO$O$O$O$O$O$$$5%>%>>%>%%>>%%%>%%>>>>%>>%8%%$O$$$$OO$$O$OOO$OO$O$O$>%>%>>>%2%%>%>%>>%>>%%%%%",
"%%%$$$%%%%>%$%%%%%%>%>>$282$$OO$OOOOO$O$O$$OOOO$O$$2>%>>%>%>>%>>>>%>>%%>>>%>%q%$$$OOO$$$$O$OOO$O$OOOOO$2%>>>%%>%>>>>>%%%>%%%%>>>",
"%%%%%$%%%%>%%%%%%%%>>>%%>8%$$OO$$O$O$OO$$$$$$$$$O$$5%>%%>%%>%>%>>%>%%>>>%>>%%8%$O$$$$O$O$OO$OOO$OOOOOOO2%>>>>%>%%>%>%>%%%%>%>%%%",
"$>$$$%%%%%>>%%%%%%%>>>>%28%$$$$$$$OOO$$$O$$OO$OO$O%8%%>>%>>%>%>%>>>>%>>%>%%>%5$$$O$OO$O$OO$OOOOOOOOOOO$5%%%%>%%>%%%%>%>>%>%%%%>%"
};
